<svg width="26" height="23" viewBox="0 0 26 23" fill="none" xmlns="http://www.w3.org/2000/svg">
<path fill-rule="evenodd" clip-rule="evenodd" d="M0 8.21429C0 7.77857 0.171205 7.36071 0.475951 7.05261C0.780698 6.74452 1.19402 6.57143 1.625 6.57143H18.3755C18.8065 6.57143 19.2198 6.74452 19.5245 7.05261C19.8293 7.36071 20.0005 7.77857 20.0005 8.21429C20.0005 8.65 19.8293 9.06787 19.5245 9.37596C19.2198 9.68406 18.8065 9.85714 18.3755 9.85714H1.625C1.19402 9.85714 0.780698 9.68406 0.475951 9.37596C0.171205 9.06787 0 8.65 0 8.21429ZM0 1.64286C0 1.20714 0.171205 0.789277 0.475951 0.481182C0.780698 0.173086 1.19402 0 1.625 0H24.375C24.806 0 25.2193 0.173086 25.524 0.481182C25.8288 0.789277 26 1.20714 26 1.64286C26 2.07857 25.8288 2.49644 25.524 2.80453C25.2193 3.11263 24.806 3.28571 24.375 3.28571H1.625C1.19402 3.28571 0.780698 3.11263 0.475951 2.80453C0.171205 2.49644 0 2.07857 0 1.64286ZM0 14.7857C0 14.35 0.171205 13.9321 0.475951 13.624C0.780698 13.3159 1.19402 13.1429 1.625 13.1429H24.375C24.806 13.1429 25.2193 13.3159 25.524 13.624C25.8288 13.9321 26 14.35 26 14.7857C26 15.2214 25.8288 15.6393 25.524 15.9474C25.2193 16.2555 24.806 16.4286 24.375 16.4286H1.625C1.19402 16.4286 0.780698 16.2555 0.475951 15.9474C0.171205 15.6393 0 15.2214 0 14.7857ZM0 21.3571C0 20.9214 0.171205 20.5036 0.475951 20.1955C0.780698 19.8874 1.19402 19.7143 1.625 19.7143H18.3755C18.8065 19.7143 19.2198 19.8874 19.5245 20.1955C19.8293 20.5036 20.0005 20.9214 20.0005 21.3571C20.0005 21.7929 19.8293 22.2107 19.5245 22.5188C19.2198 22.8269 18.8065 23 18.3755 23H1.625C1.19402 23 0.780698 22.8269 0.475951 22.5188C0.171205 22.2107 0 21.7929 0 21.3571Z" fill="black"/>
</svg>
