<svg width="360" height="640" viewBox="0 0 360 640" fill="none" xmlns="http://www.w3.org/2000/svg">
<g clip-path="url(#clip0_1_43)">
<rect width="360" height="640" rx="20" fill="white"/>
<path d="M252.012 25.7332C89.5238 78.9664 232 142 115.512 150.733C35.8967 156.702 26.1811 244.09 28.0074 298.815C28.6406 317.787 9.11255 332.975 -8.43266 325.728L-122.805 278.49C-135.057 273.43 -140.886 259.397 -135.826 247.146L-16.7022 -41.2775C-12.7585 -50.826 -3.22144 -56.7788 7.07574 -55.9449C84.9036 -49.6417 394.645 -20.9951 252.012 25.7332Z" fill="#FFC123"/>
<path d="M202.614 26.8235C66.5032 75.989 183.859 128.127 86.815 137.823C22.5734 144.242 11.4857 215.785 11.33 263.416C11.2688 282.106 -8.03227 296.715 -25.3069 289.58L-109.818 254.675C-122.069 249.616 -127.898 235.582 -122.838 223.331L-20.3563 -24.7987C-16.4752 -34.1955 -7.22958 -40.1295 2.9164 -39.4796C71.425 -35.0916 320.584 -15.7894 202.614 26.8235Z" fill="#FFF4D6"/>
<g filter="url(#filter0_f_1_43)">
<rect x="-65" y="108.026" width="208" height="101.02" rx="24" transform="rotate(-31.2892 -65 108.026)" fill="#FFC123"/>
</g>
<g filter="url(#filter1_f_1_43)">
<rect x="-65" y="11.0265" width="208" height="101.02" rx="24" transform="rotate(-31.2892 -65 11.0265)" fill="#FFC123"/>
</g>
<g filter="url(#filter2_f_1_43)">
<rect x="216" y="598.026" width="208" height="101.02" rx="24" transform="rotate(-31.2892 216 598.026)" fill="#FFC123"/>
</g>
</g>
<defs>
<filter id="filter0_f_1_43" x="-256.03" y="-191.03" width="612.273" height="576.413" filterUnits="userSpaceOnUse" color-interpolation-filters="sRGB">
<feFlood flood-opacity="0" result="BackgroundImageFix"/>
<feBlend mode="normal" in="SourceGraphic" in2="BackgroundImageFix" result="shape"/>
<feGaussianBlur stdDeviation="100" result="effect1_foregroundBlur_1_43"/>
</filter>
<filter id="filter1_f_1_43" x="-256.03" y="-288.03" width="612.273" height="576.413" filterUnits="userSpaceOnUse" color-interpolation-filters="sRGB">
<feFlood flood-opacity="0" result="BackgroundImageFix"/>
<feBlend mode="normal" in="SourceGraphic" in2="BackgroundImageFix" result="shape"/>
<feGaussianBlur stdDeviation="100" result="effect1_foregroundBlur_1_43"/>
</filter>
<filter id="filter2_f_1_43" x="24.9705" y="298.97" width="612.273" height="576.413" filterUnits="userSpaceOnUse" color-interpolation-filters="sRGB">
<feFlood flood-opacity="0" result="BackgroundImageFix"/>
<feBlend mode="normal" in="SourceGraphic" in2="BackgroundImageFix" result="shape"/>
<feGaussianBlur stdDeviation="100" result="effect1_foregroundBlur_1_43"/>
</filter>
<clipPath id="clip0_1_43">
<rect width="360" height="640" rx="20" fill="white"/>
</clipPath>
</defs>
</svg>
